<?xml version="1.0" encoding="UTF-8"?>
<svg id="Logo" xmlns="http://www.w3.org/2000/svg" viewBox="0 0 700 700">
  <path d="M350,6.88C160.31,6.88,6.54,160.65,6.54,350.34c0,161.08,110.89,296.23,260.49,333.35v-228.39h-70.83v-104.96h70.83v-45.23c0-116.9,52.91-171.09,167.68-171.09,21.76,0,59.31,4.27,74.66,8.53v95.14c-8.11-.85-22.19-1.28-39.68-1.28-56.32,0-78.08,21.33-78.08,76.8v37.12h112.19l-19.27,104.96h-92.91v235.99c170.06-20.54,301.85-165.35,301.85-340.95,0-189.69-153.77-343.46-343.46-343.46Z" fill="#fff"/>
</svg>