<?xml version="1.0" encoding="UTF-8"?>
<svg id="Layer_1" data-name="Layer 1" xmlns="http://www.w3.org/2000/svg" viewBox="0 0 1138.78 1131.76">
  <path d="M401.93,121.2c0,66.94-54.26,121.2-121.2,121.2s-121.2-54.26-121.2-121.2S213.79,0,280.73,0s121.2,54.26,121.2,121.2h0Z"/>
  <path d="M957.53,573.6l22.8-160.8c10.8-73.2-45.6-138-120-138h-63.6c-74.4,0-130.8,66-120,138l22.8,160.8c-97.2,88.8-168,276-181.2,499.2-1.2,30,22.8,55.2,52.8,55.2h514.8c30,0,54-25.2,52.8-55.2-12-223.2-82.81-410.4-181.2-499.2h0Z"/>
  <path d="M950.33,121.2c0,66.94-54.27,121.2-121.2,121.2s-121.2-54.26-121.2-121.2S762.2,0,829.13,0s121.2,54.26,121.2,121.2h0Z"/>
  <path d="M635.93,552l-12-82.8c-26.4-8.4-63.6-26.4-85.2-52.8-8.4-9.6-15.6-19.2-21.6-28.8-37.2-51.6-74.4-91.2-153.6-106.8l-78,192c-2.4,4.8-8.4,4.8-9.6,0l-76.8-188.4c-46.8,12-85.2,36-117.6,69.6C-12.08,456-.08,615.6,1.13,621.6c2.4,28.8,26.4,50.4,54,50.4h4.8c30-2.4,52.8-28.8,50.4-58.8,0-1.2-7.2-105.6,42-172.8l-3.59,219.6-33.6,405.6c-2.4,33.6,21.6,62.4,55.2,66,33.6,2.4,62.4-21.6,66-55.2l32.4-390h24l32.4,390c2.4,31.2,28.8,55.2,60,55.2h4.8c33.6-2.4,58.8-32.4,55.2-66l-33.6-405.6-1.2-232.8c6,7.2,12,15.6,19.2,25.2,7.2,10.8,15.6,21.6,25.2,33.6,49.2,60,124.8,86.4,158.4,94.8,7.21-10.8,14.41-20.4,22.8-28.8h0Z"/>
  <path d="M328.73,307.2v-42c0-3.6-3.6-6-7.2-4.8l-28.8,13.2c-3.6-3.6-8.4-6-13.2-6s-9.6,2.4-13.2,6l-28.8-13.2c-3.6-1.2-7.2,1.2-7.2,4.8v40.8c0,3.6,3.6,6,7.2,4.8l28.8-13.2c3.6,3.6,8.4,6,13.2,6s9.6-2.4,13.2-6l28.8,13.2c3.6,2.4,7.2,0,7.2-3.6h0Z"/>
  <path d="M296.33,339.6c0,8.62-6.98,15.6-15.6,15.6s-15.6-6.98-15.6-15.6,6.98-15.6,15.6-15.6,15.6,6.98,15.6,15.6Z"/>
  <path d="M296.33,386.4c0,8.62-6.98,15.6-15.6,15.6s-15.6-6.98-15.6-15.6,6.98-15.6,15.6-15.6,15.6,6.98,15.6,15.6Z"/>
</svg>